<?xml version="1.0" encoding="utf-8"?>
<!-- Generator: Adobe Illustrator 28.1.0, SVG Export Plug-In . SVG Version: 6.00 Build 0)  -->
<svg version="1.1" id="Layer_1" xmlns="http://www.w3.org/2000/svg" xmlns:xlink="http://www.w3.org/1999/xlink" x="0px" y="0px"
	 viewBox="0 0 125 125" style="enable-background:new 0 0 125 125;" xml:space="preserve">
<style type="text/css">
	.st0{clip-path:url(#SVGID_00000019671270099978969620000008848588265540351915_);fill:#425166;}
</style>
<g>
	<g>
		<defs>
			<rect id="SVGID_1_" x="5" y="5" width="115" height="115"/>
		</defs>
		<clipPath id="SVGID_00000156585304842046036280000013485826825653246112_">
			<use xlink:href="#SVGID_1_"  style="overflow:visible;"/>
		</clipPath>
		<path style="clip-path:url(#SVGID_00000156585304842046036280000013485826825653246112_);fill:#425166;" d="M56.36,27.35
			c0-1.82,0.55-3.29,1.65-4.41c1.1-1.13,2.56-1.69,4.37-1.69c1.93,0,3.45,0.56,4.58,1.69c1.12,1.13,1.69,2.6,1.69,4.41
			c0,1.81-0.56,3.28-1.69,4.41c-1.13,1.13-2.65,1.69-4.58,1.69c-1.81,0-3.27-0.56-4.37-1.69C56.91,30.64,56.36,29.17,56.36,27.35
			 M76.48,95.82c-1.76,0-3.88-0.03-6.35-0.08c-2.48-0.05-5.34-0.08-8.58-0.08c-2.7,0-5.06,0.03-7.09,0.08
			c-2.03,0.05-3.82,0.08-5.36,0.08l-0.17-2.8c1.81-0.17,3.26-0.4,4.33-0.7c1.07-0.3,1.91-0.81,2.52-1.53s1-1.69,1.2-2.93
			c0.19-1.24,0.29-2.9,0.29-4.99V61.5c0-1.54-0.08-2.75-0.25-3.63c-0.17-0.88-0.51-1.57-1.03-2.06c-0.52-0.49-1.29-0.88-2.31-1.15
			c-1.02-0.27-2.35-0.55-4-0.83l-0.25-2.56c1.7-0.33,3.42-0.67,5.15-1.03c1.73-0.36,3.64-0.73,5.73-1.11
			c2.09-0.38,3.72-0.74,4.91-1.07c1.18-0.33,2.08-0.63,2.68-0.91l0.83,0.66c-0.17,1.38-0.3,2.86-0.41,4.45
			c-0.11,1.6-0.19,3.15-0.25,4.66c-0.05,1.51-0.1,2.94-0.12,4.29c-0.03,1.35-0.04,2.52-0.04,3.51v21.53c0,1.32,0.08,2.38,0.25,3.18
			c0.16,0.8,0.54,1.42,1.11,1.85c0.58,0.44,1.44,0.74,2.6,0.91s2.75,0.3,4.78,0.41L76.48,95.82z"/>
		<path style="clip-path:url(#SVGID_00000156585304842046036280000013485826825653246112_);fill:#425166;" d="M62.5,112.5
			c-27.61,0-50-22.39-50-50s22.39-50,50-50s50,22.39,50,50S90.11,112.5,62.5,112.5 M62.5,5C30.74,5,5,30.74,5,62.5
			S30.74,120,62.5,120S120,94.26,120,62.5S94.26,5,62.5,5"/>
	</g>
</g>
</svg>
