<?xml version="1.0" encoding="utf-8"?>
<!-- Generator: Adobe Illustrator 28.1.0, SVG Export Plug-In . SVG Version: 6.00 Build 0)  -->
<svg version="1.1" id="Layer_1" xmlns="http://www.w3.org/2000/svg" xmlns:xlink="http://www.w3.org/1999/xlink" x="0px" y="0px"
	 viewBox="0 0 144 155" style="enable-background:new 0 0 144 155;" xml:space="preserve">
<style type="text/css">
	.st0{fill:#C8C8CC;}
	.st1{fill:#242424;}
</style>
<rect x="0.06" y="134.5" class="st0" width="143.88" height="16"/>
<rect x="0.06" y="4.99" class="st0" width="143.88" height="15"/>
<path class="st1" d="M114.8,150.48c-1.79,0-3.23-1.7-3.23-3.8V142c0-2.1,1.45-3.8,3.23-3.8h23.22c1.79,0,3.23,1.7,3.23,3.8v4.68
	c0,2.1-1.45,3.8-3.23,3.8H114.8z M78.53,150.48c-1.79,0-3.23-1.7-3.23-3.8V142c0-2.1,1.44-3.8,3.23-3.8h23.21
	c1.79,0,3.23,1.7,3.23,3.8v4.68c0,2.1-1.45,3.8-3.23,3.8H78.53z M42.26,150.48c-1.79,0-3.23-1.7-3.23-3.8V142
	c0-2.1,1.44-3.8,3.23-3.8h23.22c1.79,0,3.23,1.7,3.23,3.8v4.68c0,2.1-1.44,3.8-3.23,3.8H42.26z M5.99,150.48
	c-1.79,0-3.23-1.7-3.23-3.8V142c0-2.1,1.45-3.8,3.23-3.8h23.22c1.79,0,3.23,1.7,3.23,3.8v4.68c0,2.1-1.44,3.8-3.23,3.8H5.99z
	 M15.81,125.29c-3.26,0-5.91-3.11-5.91-6.94V46.98c0-3.84,2.64-6.94,5.91-6.94H127.1c3.26,0,5.91,3.11,5.91,6.94v71.36
	c0,3.84-2.64,6.94-5.91,6.94H15.81z M114.8,17.43c-1.79,0-3.23-1.7-3.23-3.8V8.95c0-2.1,1.45-3.8,3.23-3.8h23.22
	c1.79,0,3.23,1.7,3.23,3.8v4.68c0,2.1-1.45,3.8-3.23,3.8H114.8z M78.53,17.43c-1.79,0-3.23-1.7-3.23-3.8V8.95
	c0-2.1,1.44-3.8,3.23-3.8h23.21c1.79,0,3.23,1.7,3.23,3.8v4.68c0,2.1-1.45,3.8-3.23,3.8H78.53z M42.26,17.43
	c-1.79,0-3.23-1.7-3.23-3.8V8.95c0-2.1,1.44-3.8,3.23-3.8h23.22c1.79,0,3.23,1.7,3.23,3.8v4.68c0,2.1-1.44,3.8-3.23,3.8H42.26z
	 M5.99,17.43c-1.79,0-3.23-1.7-3.23-3.8V8.95c0-2.1,1.45-3.8,3.23-3.8h23.22c1.79,0,3.23,1.7,3.23,3.8v4.68c0,2.1-1.44,3.8-3.23,3.8
	H5.99z M144,148.06V6.94C144,3.1,141.36,0,138.09,0H5.91C2.65,0,0,3.11,0,6.94v141.12C0,151.9,2.64,155,5.91,155h132.17
	C141.35,155,144,151.9,144,148.06"/>
</svg>
