<?xml version="1.0" encoding="utf-8"?>
<!-- Generator: Adobe Illustrator 28.1.0, SVG Export Plug-In . SVG Version: 6.00 Build 0)  -->
<svg version="1.1" id="Layer_1" xmlns="http://www.w3.org/2000/svg" xmlns:xlink="http://www.w3.org/1999/xlink" x="0px" y="0px"
	 viewBox="0 0 125 125" style="enable-background:new 0 0 125 125;" xml:space="preserve">
<style type="text/css">
	.st0{clip-path:url(#SVGID_00000122680240545481197920000001920809357888424363_);fill:#425166;}
	.st1{fill:#425166;}
	.st2{clip-path:url(#SVGID_00000120535888488301612380000017174421890915331715_);fill:#425166;}
	.st3{clip-path:url(#SVGID_00000112609599111904878310000008017401839735035535_);fill:#425166;}
	.st4{clip-path:url(#SVGID_00000098932812664252704680000003881063636758093193_);fill:#425166;}
</style>
<g>
	<g>
		<defs>
			<rect id="SVGID_1_" x="12.5" width="100" height="125"/>
		</defs>
		<clipPath id="SVGID_00000013171449320103480240000011756525666152632730_">
			<use xlink:href="#SVGID_1_"  style="overflow:visible;"/>
		</clipPath>
		<path style="clip-path:url(#SVGID_00000013171449320103480240000011756525666152632730_);fill:#425166;" d="M48.52,36.11
			c1.42-1.61,2.67-2.24,4.18-2.24c9.03-0.01,18.07-0.06,27.09,0.06c1.25,0.02,2.49,0.92,4,1.53c-1.45,1.62-2.82,2.13-4.32,2.13
			c-9.03,0.03-18.06,0.06-27.09-0.05C51.19,37.53,50.02,36.69,48.52,36.11"/>
		<path style="clip-path:url(#SVGID_00000013171449320103480240000011756525666152632730_);fill:#425166;" d="M48.49,45.6
			c1.08-1.82,2.21-2.48,3.73-2.47c4.73,0.03,9.45-0.06,14.18,0.06c1.15,0.03,2.29,0.68,3.58,1.08c-0.86,2.02-2.04,2.72-3.57,2.72
			c-4.92-0.02-9.83-0.01-14.75-0.16C50.67,46.79,49.68,46.07,48.49,45.6"/>
		<path style="clip-path:url(#SVGID_00000013171449320103480240000011756525666152632730_);fill:#425166;" d="M48.5,95.77
			c1.42-1.61,2.67-2.24,4.18-2.24c9.03-0.01,18.07-0.06,27.09,0.06c1.25,0.02,2.49,0.92,4,1.53c-1.45,1.62-2.82,2.13-4.32,2.13
			c-9.03,0.03-18.06,0.06-27.09-0.05C51.18,97.19,50.01,96.35,48.5,95.77"/>
		<path style="clip-path:url(#SVGID_00000013171449320103480240000011756525666152632730_);fill:#425166;" d="M48.48,105.26
			c1.08-1.82,2.21-2.48,3.73-2.47c4.73,0.03,9.45-0.06,14.18,0.06c1.15,0.03,2.29,0.68,3.58,1.08c-0.86,2.02-2.04,2.72-3.57,2.72
			c-4.92-0.02-9.83-0.01-14.75-0.16C50.65,106.45,49.67,105.73,48.48,105.26"/>
		<path style="clip-path:url(#SVGID_00000013171449320103480240000011756525666152632730_);fill:#425166;" d="M38.69,46.94H24.43
			V32.82h14.25V46.94z M42.42,32.69c-0.09-2.45-0.85-3.33-3.26-3.49c-2.67-0.17-5.35-0.17-8.02-0.15c-2.48,0.01-4.97,0.07-7.44,0.24
			c-1.69,0.11-2.52,0.85-2.55,2.35c-0.09,5.4-0.15,10.79-0.07,16.19c0.03,1.96,0.95,2.64,2.98,2.67c2.49,0.03,4.97,0.01,7.46,0.01
			v0.01c2.58,0,5.16,0.03,7.74-0.01c2.04-0.03,3.01-0.95,3.07-2.97c0.09-2.85,0.1-5.7,0.13-8.54C42.46,36.89,42.5,34.78,42.42,32.69
			"/>
	</g>
	<rect x="24.43" y="32.82" class="st1" width="14.25" height="14.12"/>
	<g>
		<defs>
			<rect id="SVGID_00000011746535441404920000000010457435615781546919_" x="12.5" width="100" height="125"/>
		</defs>
		<clipPath id="SVGID_00000112618305929508129930000004153524227333567109_">
			<use xlink:href="#SVGID_00000011746535441404920000000010457435615781546919_"  style="overflow:visible;"/>
		</clipPath>
		<path style="clip-path:url(#SVGID_00000112618305929508129930000004153524227333567109_);fill:#425166;" d="M38.76,76.82H24.59
			V62.6h14.17V76.82z M42.43,66.79c-0.01-1.72-0.04-3.44-0.15-5.15c-0.1-1.5-1.03-2.3-2.48-2.52c-0.57-0.09-1.14-0.16-1.71-0.16
			c-4.54,0.01-9.08,0.01-13.61,0.08c-2.43,0.04-3.46,0.94-3.51,3.38c-0.1,4.92-0.1,9.84-0.01,14.76c0.04,2.25,1.13,3.17,3.37,3.21
			c2.49,0.03,4.97,0.01,7.45,0.01c2.2,0,4.39,0.03,6.59-0.01c3.17-0.04,3.91-0.7,4.01-3.84C42.48,73.28,42.44,70.03,42.43,66.79"/>
	</g>
	<rect x="24.58" y="62.6" class="st1" width="14.17" height="14.21"/>
	<g>
		<defs>
			<rect id="SVGID_00000042732939020478796930000014244309487088357515_" x="12.5" width="100" height="125"/>
		</defs>
		<clipPath id="SVGID_00000060732506958081668960000016688771055309615007_">
			<use xlink:href="#SVGID_00000042732939020478796930000014244309487088357515_"  style="overflow:visible;"/>
		</clipPath>
		<path style="clip-path:url(#SVGID_00000060732506958081668960000016688771055309615007_);fill:#425166;" d="M38.75,106.62H24.57
			V92.43h14.19V106.62z M42.46,97.66c0-1.96,0.05-3.93-0.15-5.87c-0.22-2.11-0.93-2.86-3.03-2.93c-4.87-0.14-9.75-0.21-14.61-0.04
			c-2.97,0.11-3.66,1.06-3.73,4.11c-0.07,3.16-0.05,6.31-0.04,9.47c0.01,1.67-0.04,3.35,0.13,5.01c0.22,2.11,0.98,2.73,3.09,2.75
			c2.44,0.03,4.88,0.01,7.32,0.01v0.03c2.44,0,4.87,0.03,7.31-0.01c2.72-0.05,3.51-0.75,3.62-3.49
			C42.49,103.69,42.46,100.68,42.46,97.66"/>
	</g>
	<rect x="24.57" y="92.43" class="st1" width="14.19" height="14.19"/>
	<g>
		<defs>
			<rect id="SVGID_00000134239441851423472650000000322230249892706457_" x="12.5" width="100" height="125"/>
		</defs>
		<clipPath id="SVGID_00000038403481930393069010000006373413147320756879_">
			<use xlink:href="#SVGID_00000134239441851423472650000000322230249892706457_"  style="overflow:visible;"/>
		</clipPath>
		<path style="clip-path:url(#SVGID_00000038403481930393069010000006373413147320756879_);fill:#425166;" d="M48.49,64.86
			c1.42-1.61,2.67-2.24,4.18-2.24c9.03-0.01,18.07-0.06,27.09,0.06c1.25,0.02,2.49,0.92,4,1.53c-1.45,1.62-2.82,2.13-4.32,2.13
			c-9.03,0.03-18.06,0.06-27.09-0.05C51.17,66.28,49.99,65.44,48.49,64.86"/>
		<path style="clip-path:url(#SVGID_00000038403481930393069010000006373413147320756879_);fill:#425166;" d="M48.46,74.35
			c1.08-1.82,2.21-2.48,3.73-2.47c4.73,0.03,9.45-0.06,14.18,0.06c1.15,0.03,2.29,0.68,3.58,1.08c-0.86,2.02-2.04,2.72-3.57,2.72
			c-4.92-0.02-9.83-0.01-14.75-0.16C50.64,75.54,49.65,74.82,48.46,74.35"/>
		<path style="clip-path:url(#SVGID_00000038403481930393069010000006373413147320756879_);fill:#425166;" d="M93.5,103.81
			c0,1.07,0,2.14,0,3.21v0.99c0,2.66,0,5.33,0,7.99c0,0.7-0.03,1.4-0.15,2.08c-0.26,1.43-1.21,2.14-2.59,2.28
			c-0.63,0.06-1.28,0.04-1.92,0.04c-22.25,0-44.5,0-66.75,0c-0.54,0-1.1,0.01-1.64-0.03c-1.91-0.13-2.83-1.04-2.99-2.95
			c-0.06-0.79-0.08-1.58-0.08-2.38V26.88c0-0.93,0-1.87,0.08-2.8c0.17-1.88,1.08-2.74,2.93-2.81c0.91-0.04,1.83-0.04,2.75-0.04h4.91
			c1.03,0,2.05,0,3.08,0h0.52c19.18,0,38.37,0.01,57.55,0.01c0.46,0,0.92-0.01,1.37,0.03c1.82,0.15,2.73,1.05,2.89,2.91
			c0.06,0.65,0.03,1.3,0.03,1.96c0,14.88,0,29.76,0,44.65c0,10.9,0,21.81-0.01,32.7V103.81z M98.16,24.35
			c0-1.33-0.12-2.67-0.32-3.99c-0.3-1.9-1.57-2.9-3.4-3.17c-1.18-0.17-2.37-0.28-3.57-0.28c-3.71,0-7.42-0.01-11.13-0.01H17.42
			c-3.98,0.39-4.92,1.88-4.92,6.62c-0.01,31.36,0,62.73,0,94.09c0,0.81-0.01,1.63,0.03,2.44c0.12,2.84,1.56,4.42,4.39,4.71
			c1.47,0.14,2.95,0.2,4.44,0.2c12.34,0.02,24.67,0.05,37.01,0.02c11.57-0.02,23.14-0.06,34.71-0.17c3.27-0.03,4.8-1.38,5.15-4.36
			V69.63C98.21,54.54,98.19,39.45,98.16,24.35"/>
		<path style="clip-path:url(#SVGID_00000038403481930393069010000006373413147320756879_);fill:#425166;" d="M112.5,52.71v50.83
			c-0.35,2.98-1.88,4.33-5.15,4.37c-3.04,0.03-6.08,0.05-9.12,0.07v-4.49h4.87c0.64,0,1.29,0.02,1.92-0.04
			c1.37-0.14,2.33-0.85,2.59-2.28c0.12-0.68,0.15-1.39,0.15-2.08c0-2.99,0-5.98,0-8.98c0-1.07,0-2.14,0-3.21
			c0.01-11.01,0.01-22.01,0.01-33.02c0-14.88,0-29.77,0-44.65c0-0.65,0.03-1.31-0.03-1.96c-0.16-1.86-1.07-2.77-2.89-2.91
			c-0.45-0.04-0.91-0.03-1.37-0.03C84.12,4.32,64.76,4.31,45.4,4.31c-1.02,0-2.05,0-3.07,0h-4.91c-0.91,0-1.83,0-2.75,0.04
			c-1.86,0.08-2.77,0.94-2.93,2.81c-0.08,0.93-0.08,1.87-0.08,2.8v6.95h-4.89c0-3.43,0-6.86,0-10.3c0-4.74,0.93-6.23,4.92-6.62H94
			c3.71,0,7.42,0.01,11.13,0.01c1.19,0,2.38,0.11,3.57,0.28c1.83,0.26,3.1,1.27,3.4,3.16c0.2,1.32,0.32,2.66,0.32,3.99
			C112.45,22.53,112.47,37.62,112.5,52.71"/>
	</g>
</g>
</svg>
