<?xml version="1.0" encoding="utf-8"?>
<!-- Generator: Adobe Illustrator 28.1.0, SVG Export Plug-In . SVG Version: 6.00 Build 0)  -->
<svg version="1.1" id="Layer_1" xmlns="http://www.w3.org/2000/svg" xmlns:xlink="http://www.w3.org/1999/xlink" x="0px" y="0px"
	 viewBox="0 0 125 125" style="enable-background:new 0 0 125 125;" xml:space="preserve">
<style type="text/css">
	.st0{clip-path:url(#SVGID_00000033371181116348693900000005503472305320707767_);fill:#425166;}
</style>
<g>
	<g>
		<defs>
			<rect id="SVGID_1_" y="3.5" width="125" height="118"/>
		</defs>
		<clipPath id="SVGID_00000020385684708129186850000008230821405211810950_">
			<use xlink:href="#SVGID_1_"  style="overflow:visible;"/>
		</clipPath>
		<path style="clip-path:url(#SVGID_00000020385684708129186850000008230821405211810950_);fill:#425166;" d="M75.64,49.92
			c0,7.36-5.95,13.33-13.29,13.33s-13.29-5.97-13.29-13.33s5.95-13.33,13.29-13.33S75.64,42.56,75.64,49.92"/>
		<path style="clip-path:url(#SVGID_00000020385684708129186850000008230821405211810950_);fill:#425166;" d="M35.1,43.25
			c0,7.36-5.95,13.33-13.29,13.33S8.53,50.62,8.53,43.25c0-7.36,5.95-13.33,13.29-13.33S35.1,35.89,35.1,43.25"/>
		<path style="clip-path:url(#SVGID_00000020385684708129186850000008230821405211810950_);fill:#425166;" d="M116.48,43.35
			c0,7.36-5.95,13.33-13.29,13.33c-7.34,0-13.29-5.97-13.29-13.33c0-7.36,5.95-13.33,13.29-13.33
			C110.53,30.02,116.48,35.99,116.48,43.35"/>
		<path style="clip-path:url(#SVGID_00000020385684708129186850000008230821405211810950_);fill:#425166;" d="M111.76,94.54
			c-10.48,16.22-28.7,26.96-49.41,26.96s-38.92-10.74-49.41-26.96h7.94C30.45,106.98,45.46,115,62.35,115s31.9-8.02,41.47-20.46
			H111.76z"/>
		<path style="clip-path:url(#SVGID_00000020385684708129186850000008230821405211810950_);fill:#425166;" d="M105.57,22.47h-9.35
			C87.09,14.7,75.26,10,62.35,10S37.61,14.7,28.48,22.47h-9.35C29.87,10.8,45.26,3.5,62.35,3.5S94.82,10.8,105.57,22.47"/>
		<path style="clip-path:url(#SVGID_00000020385684708129186850000008230821405211810950_);fill:#425166;" d="M73.64,66.91
			c-4.47-0.1-7.77,2.27-11.29,2.22c-3.53,0.05-6.82-2.31-11.29-2.22c-9.26,0.2-11.03,18.38-10.41,22.45
			c0.07,0.44,0.11,0.85,0.15,1.17c0.25,1.88,0.3,1.84,2.76,1.86c2.72,0.03,18.79,0,18.79,0s16.07,0.03,18.79,0
			c2.46-0.02,2.52,0.02,2.76-1.86c0.04-0.32,0.08-0.72,0.15-1.17C84.67,85.29,82.9,67.1,73.64,66.91"/>
		<path style="clip-path:url(#SVGID_00000020385684708129186850000008230821405211810950_);fill:#425166;" d="M116.48,43.35
			c0,7.36-5.95,13.33-13.29,13.33c-7.34,0-13.29-5.97-13.29-13.33c0-7.36,5.95-13.33,13.29-13.33
			C110.53,30.02,116.48,35.99,116.48,43.35"/>
		<path style="clip-path:url(#SVGID_00000020385684708129186850000008230821405211810950_);fill:#425166;" d="M124.89,82.79
			c-0.07,0.45-0.1,0.85-0.15,1.17c-0.25,1.89-0.31,1.84-2.77,1.86c-2.72,0.03-18.79,0-18.79,0s-6.21,0.01-11.56,0.01
			c0-7.41-2.74-14.19-7.26-19.35c1.63-3.45,4.05-6.07,7.53-6.14c4.47-0.1,7.77,2.27,11.29,2.22c3.52,0.05,6.82-2.32,11.29-2.22
			C123.74,60.54,125.51,78.72,124.89,82.79"/>
		<path style="clip-path:url(#SVGID_00000020385684708129186850000008230821405211810950_);fill:#425166;" d="M35.1,43.25
			c0,7.36-5.95,13.33-13.29,13.33S8.53,50.62,8.53,43.25c0-7.36,5.95-13.33,13.29-13.33S35.1,35.89,35.1,43.25"/>
		<path style="clip-path:url(#SVGID_00000020385684708129186850000008230821405211810950_);fill:#425166;" d="M40.57,66.22
			c-4.64,5.17-7.47,12.01-7.5,19.51c-5.28,0-11.25-0.01-11.25-0.01s-16.07,0.03-18.79,0c-2.46-0.02-2.52,0.02-2.76-1.86
			c-0.04-0.32-0.08-0.72-0.15-1.17c-0.62-4.07,1.15-22.25,10.41-22.45c4.47-0.1,7.77,2.27,11.29,2.22
			c3.52,0.05,6.82-2.32,11.29-2.22C36.53,60.32,38.93,62.85,40.57,66.22"/>
	</g>
</g>
</svg>
