<?xml version="1.0" encoding="utf-8"?>
<!-- Generator: Adobe Illustrator 28.1.0, SVG Export Plug-In . SVG Version: 6.00 Build 0)  -->
<svg version="1.1" id="Layer_1" xmlns="http://www.w3.org/2000/svg" xmlns:xlink="http://www.w3.org/1999/xlink" x="0px" y="0px"
	 viewBox="0 0 125 125" style="enable-background:new 0 0 125 125;" xml:space="preserve">
<style type="text/css">
	.st0{clip-path:url(#SVGID_00000160153609095866918630000015230637800665660310_);fill:#425166;}
</style>
<g>
	<g>
		<defs>
			<rect id="SVGID_1_" x="25.5" y="6.5" width="74" height="112"/>
		</defs>
		<clipPath id="SVGID_00000160175274225860801570000000914074759686921363_">
			<use xlink:href="#SVGID_1_"  style="overflow:visible;"/>
		</clipPath>
		<path style="clip-path:url(#SVGID_00000160175274225860801570000000914074759686921363_);fill:#425166;" d="M99.5,78.46
			c0-0.4,0.01-0.8-0.03-1.2c-0.21-2.23-1-3.62-3.03-3.86c-1.84-0.21-3.19,1.14-3.72,3.21c-0.19,0.72-0.23,1.51-0.24,2.27
			c-0.02,7.03-0.01,14.07-0.01,21.1v1.29H74.83v-1.52V98.4c0-24.09,0-48.19,0-72.28c0-3.37-0.88-4.7-3.74-5.68
			c-3.14-1.77-7.31-3.71-10.67-5.71c-0.24-0.14-0.52-0.19-0.75-0.45h32.8v1.29c0,7.04-0.01,14.07,0.01,21.11
			c0,0.76,0.05,1.54,0.24,2.27c0.53,2.07,1.88,3.43,3.72,3.21c2.03-0.23,2.82-1.62,3.03-3.86c0.04-0.4,0.03-0.8,0.03-1.2
			c0-8.86,0-16.34,0-25.2c0-3.56-1.6-5.39-4.74-5.39c-21.48,0-42.96,0-64.45,0c-3.15,0-4.81,1.89-4.81,5.46c0,30.62,0,61.24,0,91.86
			c0,3.11,1.12,4.74,3.81,5.35c12.39,2.83,24.78,5.63,37.16,8.45c1.12,0.25,2.23,0.58,3.35,0.87h1.73c2.48-0.98,3.47-3,3.29-5.91
			c-0.07-1.09-0.01-2.18-0.01-3.44v-0.1c6.64,0,13.29,0,19.93,0c3.13,0,4.74-1.82,4.74-5.39C99.5,94.81,99.5,87.32,99.5,78.46"/>
	</g>
</g>
</svg>
