<?xml version="1.0" encoding="utf-8"?>
<!-- Generator: Adobe Illustrator 28.1.0, SVG Export Plug-In . SVG Version: 6.00 Build 0)  -->
<svg version="1.1" id="Layer_1" xmlns="http://www.w3.org/2000/svg" xmlns:xlink="http://www.w3.org/1999/xlink" x="0px" y="0px"
	 viewBox="0 0 125 125" style="enable-background:new 0 0 125 125;" xml:space="preserve">
<style type="text/css">
	.st0{clip-path:url(#SVGID_00000028325682282675940190000013383570910443610042_);fill:#425166;}
</style>
<g>
	<g>
		<defs>
			<rect id="SVGID_1_" y="13.13" width="125" height="98.21"/>
		</defs>
		<clipPath id="SVGID_00000005238533810936075110000017244611204300338574_">
			<use xlink:href="#SVGID_1_"  style="overflow:visible;"/>
		</clipPath>
		<path style="clip-path:url(#SVGID_00000005238533810936075110000017244611204300338574_);fill:#425166;" d="M124.8,62.08
			c-0.63-0.69-1.18-1.22-1.89-1.81c-5.03-4.18-10.09-8.34-15.16-12.47c-0.65-0.53-0.91-1.08-0.91-1.93
			c0.03-9.76,0.02-19.51,0.02-29.27c0-2.43-0.83-3.24-3.3-3.25c-4.8-0.01-9.59-0.01-14.39,0c-1.15,0-2.08,0.93-2.09,2.06
			c-0.01,4.63,0,9.26-0.01,13.88c0,0.4-0.04,0.8-0.07,1.4l-0.98-0.82c-5.6-4.63-11.19-9.28-16.81-13.9
			c-0.84-0.69-1.7-1.42-2.68-1.86c-3.67-1.64-7.2-1.31-10.36,1.25c-4.52,3.66-8.98,7.39-13.47,11.09
			C28.95,37.8,15.21,49.13,1.47,60.46c-1.81,1.49-1.93,2.74-0.45,4.51C2.29,66.49,3.57,68,4.85,69.5c1.49,1.75,2.79,1.86,4.58,0.38
			c15.7-12.96,31.4-25.91,47.1-38.87c1.92-1.59,3.85-3.16,5.78-4.75c0.48,0.38,0.86,0.68,1.23,0.98
			c17.19,14.19,34.39,28.38,51.58,42.58c1.91,1.58,3.16,1.48,4.74-0.41c1.65-1.97,3.28-3.94,4.92-5.91
			C125.06,63.17,125.08,62.4,124.8,62.08"/>
		<path style="clip-path:url(#SVGID_00000005238533810936075110000017244611204300338574_);fill:#425166;" d="M105.92,68.52
			c-7.69-6.23-15.34-12.5-23.01-18.75c-6.44-5.26-12.88-10.51-19.41-15.83c-0.68-0.56-1.67-0.57-2.36-0.01c0,0-0.01,0-0.01,0.01
			C47.02,45.45,32.91,56.97,18.78,68.47c-0.74,0.6-1.02,1.2-1.02,2.13c0.03,11.69,0.02,23.37,0.02,35.05c0,3.69,1.99,5.69,5.68,5.69
			c9.21,0.01,18.41,0,27.62,0c0.18,0,0.36-0.01,0.56-0.02c0.45-0.02,0.79-0.39,0.79-0.83V82.88c0-0.46,0.38-0.83,0.84-0.83h18.16
			c0.46,0,0.84,0.37,0.84,0.83v27.62c0,0.44,0.35,0.8,0.8,0.83c0.14,0.01,0.27,0.01,0.41,0.01c9.25,0,18.49,0.01,27.74,0
			c3.63,0,5.64-2.01,5.64-5.61c0-11.72-0.01-23.45,0.02-35.17C106.87,69.67,106.62,69.09,105.92,68.52 M102.11,95.46v10.26
			c0,0.43-0.06,0.69-0.1,0.82c-0.13,0.04-0.39,0.09-0.8,0.09c-3.86,0-7.73,0-11.59,0h-0.06c-3.88,0-12.55,0-12.55,0V82.88
			c0-3.04-2.5-5.52-5.58-5.52H53.27c-3.08,0-5.58,2.48-5.58,5.52v23.76c0,0-8.57,0-12.73,0c-3.83,0-7.66,0-11.5,0
			c-0.43,0-0.7-0.05-0.84-0.09c-0.05-0.14-0.11-0.44-0.11-0.91v-9.46c0-8.09,0-16.44-0.02-24.67c11.12-9.04,22.39-18.25,33.3-27.15
			l6.51-5.31l3.33,2.72c4.77,3.89,9.51,7.75,14.25,11.62l5.72,4.67c5.41,4.42,10.99,8.98,16.51,13.46
			C102.11,79.51,102.11,87.61,102.11,95.46"/>
	</g>
</g>
</svg>
