<?xml version="1.0" encoding="utf-8"?>
<!-- Generator: Adobe Illustrator 28.0.0, SVG Export Plug-In . SVG Version: 6.00 Build 0)  -->
<svg version="1.1" id="Layer_1" xmlns="http://www.w3.org/2000/svg" xmlns:xlink="http://www.w3.org/1999/xlink" x="0px" y="0px"
	 viewBox="0 0 250 250" style="enable-background:new 0 0 250 250;" xml:space="preserve">
<style type="text/css">
	.st0{fill:#E8E4E1;}
	.st1{fill:#C8C8CC;}
	.st2{fill:#242424;}
	.st3{fill:#AFAFB2;}
</style>
<rect x="55" y="82" class="st0" width="144" height="86"/>
<rect x="55.04" y="176.32" class="st1" width="143.89" height="16"/>
<rect x="55.04" y="46.82" class="st1" width="143.89" height="15"/>
<path class="st2" d="M169.79,192.3c-1.79,0-3.23-1.7-3.23-3.8v-4.68c0-2.1,1.45-3.8,3.23-3.8h23.22c1.79,0,3.23,1.7,3.23,3.8v4.68
	c0,2.1-1.45,3.8-3.23,3.8H169.79z M133.52,192.3c-1.79,0-3.23-1.7-3.23-3.8v-4.68c0-2.1,1.44-3.8,3.23-3.8h23.21
	c1.79,0,3.23,1.7,3.23,3.8v4.68c0,2.1-1.45,3.8-3.23,3.8H133.52z M97.24,192.3c-1.79,0-3.23-1.7-3.23-3.8v-4.68
	c0-2.1,1.44-3.8,3.23-3.8h23.22c1.79,0,3.23,1.7,3.23,3.8v4.68c0,2.1-1.44,3.8-3.23,3.8H97.24z M60.97,192.3
	c-1.79,0-3.23-1.7-3.23-3.8v-4.68c0-2.1,1.45-3.8,3.23-3.8h23.22c1.79,0,3.23,1.7,3.23,3.8v4.68c0,2.1-1.44,3.8-3.23,3.8H60.97z
	 M70.79,167.11c-3.26,0-5.91-3.11-5.91-6.94V88.81c0-3.84,2.64-6.94,5.91-6.94h111.3c3.26,0,5.91,3.11,5.91,6.94v71.36
	c0,3.84-2.64,6.94-5.91,6.94H70.79z M169.79,59.26c-1.79,0-3.23-1.7-3.23-3.8v-4.68c0-2.1,1.45-3.8,3.23-3.8h23.22
	c1.79,0,3.23,1.7,3.23,3.8v4.68c0,2.1-1.45,3.8-3.23,3.8H169.79z M133.52,59.26c-1.79,0-3.23-1.7-3.23-3.8v-4.68
	c0-2.1,1.44-3.8,3.23-3.8h23.21c1.79,0,3.23,1.7,3.23,3.8v4.68c0,2.1-1.45,3.8-3.23,3.8H133.52z M97.24,59.26
	c-1.79,0-3.23-1.7-3.23-3.8v-4.68c0-2.1,1.44-3.8,3.23-3.8h23.22c1.79,0,3.23,1.7,3.23,3.8v4.68c0,2.1-1.44,3.8-3.23,3.8H97.24z
	 M60.97,59.26c-1.79,0-3.23-1.7-3.23-3.8v-4.68c0-2.1,1.45-3.8,3.23-3.8h23.22c1.79,0,3.23,1.7,3.23,3.8v4.68
	c0,2.1-1.44,3.8-3.23,3.8H60.97z M198.99,189.88V48.77c0-3.84-2.64-6.94-5.91-6.94H60.89c-3.26,0-5.91,3.11-5.91,6.94v141.11
	c0,3.84,2.64,6.94,5.91,6.94h132.18C196.34,196.82,198.99,193.72,198.99,189.88"/>
<polygon points="139.6,157.64 114.37,157.64 114.37,93 139.37,93 139.37,101.52 123.51,101.52 123.51,120.39 137.15,120.39 
	137.15,128.81 123.51,128.81 123.51,149.07 139.6,149.07 "/>
<path class="st1" d="M196.79,97.52V86.74v-8.85v-1.5v-4.63c0-1.75-1.09-3.17-2.43-3.17h-3.61h-0.55h-8.56h-49.7v-4
	c0-1.36-0.94-2.46-2.09-2.46h-5.71c-1.16,0-2.09,1.1-2.09,2.46v4h-49.7h-8.56h-0.55h-3.61c-1.34,0-2.43,1.42-2.43,3.17v4.63v1.5
	v8.85v10.95c0,0.45,0.31,0.82,0.69,0.82h1.36c0.38,0,0.69-0.37,0.69-0.82v-7.78h3.61c0.43,0,0.79-0.46,0.79-1.02v-1.58
	c0-1.22,0.22-3.02,0.61-4.04c0.38-1.01,0.92-1.89,1.59-2.59c1.01-1.07,2.85-1.7,4.26-1.7h3.2c0.43,0,0.79-0.46,0.79-1.02v-6.19
	c0-0.2-0.02-0.38-0.04-0.57h12.13v6.44c0,0.71,0.49,1.29,1.1,1.29h20.88c0.61,0,1.1-0.58,1.1-1.29V71.2h12.09v5.92
	c0,1.36,0.94,2.46,2.09,2.46h5.71c1.16,0,2.09-1.1,2.09-2.46V71.2h15.39v6.44c0,0.71,0.49,1.29,1.1,1.29h20.89
	c0.61,0,1.1-0.58,1.1-1.29V71.2h8.84c-0.03,0.18-0.04,0.37-0.04,0.57v6.19c0,0.56,0.35,1.02,0.79,1.02h3.2
	c1.41,0,3.25,0.64,4.26,1.7c0.67,0.7,1.21,1.58,1.59,2.59c0.39,1.02,0.61,2.82,0.61,4.04v1.58c0,0.56,0.35,1.02,0.79,1.02h3.61v7.62
	c0,0.45,0.31,0.82,0.69,0.82h1.36C196.48,98.34,196.79,97.97,196.79,97.52"/>
<path class="st3" d="M196.82,102.48v-1.55c0-0.45-0.31-0.82-0.69-0.82h-1.36c-0.38,0-0.69,0.37-0.69,0.82v1.55
	c0,0.45,0.31,0.82,0.69,0.82h1.36C196.51,103.3,196.82,102.93,196.82,102.48"/>
<path class="st3" d="M59.97,102.65v-1.55c0-0.45-0.31-0.82-0.69-0.82h-1.36c-0.38,0-0.69,0.37-0.69,0.82v1.55
	c0,0.45,0.31,0.82,0.69,0.82h1.36C59.66,103.47,59.97,103.1,59.97,102.65"/>
<path class="st1" d="M196.82,166.01v-17.23c0-0.45-0.31-0.82-0.69-0.82h-1.36c-0.38,0-0.69,0.37-0.69,0.82v15.28
	c0,4.29-1.87,7.8-5.5,7.8h-56.66c-0.21-1.1-1.04-1.92-2.04-1.92h-5.71c-1,0-1.83,0.82-2.04,1.92H66.56c-3.63,0-6.6-3.51-6.6-7.8
	v-15.12c0-0.45-0.31-0.82-0.69-0.82h-1.36c-0.38,0-0.69,0.37-0.69,0.82v17.07c0,4.29,2.97,7.8,6.6,7.8h58.26v3.35
	c0,1.36,0.94,2.46,2.09,2.46h5.71c1.16,0,2.09-1.1,2.09-2.46v-3.35h58.26C193.86,173.81,196.82,170.3,196.82,166.01"/>
<path class="st3" d="M196.82,145.48v-1.55c0-0.45-0.31-0.82-0.69-0.82h-1.36c-0.38,0-0.69,0.37-0.69,0.82v1.55
	c0,0.45,0.31,0.82,0.69,0.82h1.36C196.51,146.3,196.82,145.93,196.82,145.48"/>
<path class="st3" d="M59.97,145.65v-1.55c0-0.45-0.31-0.82-0.69-0.82h-1.36c-0.38,0-0.69,0.37-0.69,0.82v1.55
	c0,0.45,0.31,0.82,0.69,0.82h1.36C59.66,146.47,59.97,146.1,59.97,145.65"/>
<path class="st3" d="M196.82,107.26v-1.55c0-0.45-0.31-0.82-0.69-0.82h-1.36c-0.38,0-0.69,0.37-0.69,0.82v1.55
	c0,0.45,0.31,0.82,0.69,0.82h1.36C196.51,108.08,196.82,107.71,196.82,107.26"/>
<path class="st3" d="M59.97,107.43v-1.55c0-0.45-0.31-0.82-0.69-0.82h-1.36c-0.38,0-0.69,0.37-0.69,0.82v1.55
	c0,0.45,0.31,0.82,0.69,0.82h1.36C59.66,108.24,59.97,107.88,59.97,107.43"/>
<path class="st3" d="M196.82,112.04v-1.55c0-0.45-0.31-0.82-0.69-0.82h-1.36c-0.38,0-0.69,0.37-0.69,0.82v1.55
	c0,0.45,0.31,0.82,0.69,0.82h1.36C196.51,112.86,196.82,112.49,196.82,112.04"/>
<path class="st3" d="M59.97,112.2v-1.55c0-0.45-0.31-0.82-0.69-0.82h-1.36c-0.38,0-0.69,0.37-0.69,0.82v1.55
	c0,0.45,0.31,0.82,0.69,0.82h1.36C59.66,113.02,59.97,112.65,59.97,112.2"/>
<path class="st3" d="M196.82,116.82v-1.55c0-0.45-0.31-0.82-0.69-0.82h-1.36c-0.38,0-0.69,0.37-0.69,0.82v1.55
	c0,0.45,0.31,0.82,0.69,0.82h1.36C196.51,117.63,196.82,117.27,196.82,116.82"/>
<path class="st3" d="M59.97,116.98v-1.55c0-0.45-0.31-0.82-0.69-0.82h-1.36c-0.38,0-0.69,0.37-0.69,0.82v1.55
	c0,0.45,0.31,0.82,0.69,0.82h1.36C59.66,117.8,59.97,117.43,59.97,116.98"/>
<path class="st3" d="M196.82,121.59v-1.55c0-0.45-0.31-0.82-0.69-0.82h-1.36c-0.38,0-0.69,0.37-0.69,0.82v1.55
	c0,0.45,0.31,0.82,0.69,0.82h1.36C196.51,122.41,196.82,122.04,196.82,121.59"/>
<path class="st3" d="M59.97,121.76v-1.55c0-0.45-0.31-0.82-0.69-0.82h-1.36c-0.38,0-0.69,0.37-0.69,0.82v1.55
	c0,0.45,0.31,0.82,0.69,0.82h1.36C59.66,122.58,59.97,122.21,59.97,121.76"/>
<path class="st3" d="M196.82,126.37v-1.55c0-0.45-0.31-0.82-0.69-0.82h-1.36c-0.38,0-0.69,0.37-0.69,0.82v1.55
	c0,0.45,0.31,0.82,0.69,0.82h1.36C196.51,127.19,196.82,126.82,196.82,126.37"/>
<path class="st3" d="M59.97,126.54v-1.55c0-0.45-0.31-0.82-0.69-0.82h-1.36c-0.38,0-0.69,0.37-0.69,0.82v1.55
	c0,0.45,0.31,0.82,0.69,0.82h1.36C59.66,127.36,59.97,126.99,59.97,126.54"/>
<path class="st3" d="M196.82,131.15v-1.55c0-0.45-0.31-0.82-0.69-0.82h-1.36c-0.38,0-0.69,0.37-0.69,0.82v1.55
	c0,0.45,0.31,0.82,0.69,0.82h1.36C196.51,131.97,196.82,131.6,196.82,131.15"/>
<path class="st3" d="M59.97,131.32v-1.55c0-0.45-0.31-0.82-0.69-0.82h-1.36c-0.38,0-0.69,0.37-0.69,0.82v1.55
	c0,0.45,0.31,0.82,0.69,0.82h1.36C59.66,132.13,59.97,131.77,59.97,131.32"/>
<path class="st3" d="M196.82,135.93v-1.55c0-0.45-0.31-0.82-0.69-0.82h-1.36c-0.38,0-0.69,0.37-0.69,0.82v1.55
	c0,0.45,0.31,0.82,0.69,0.82h1.36C196.51,136.74,196.82,136.38,196.82,135.93"/>
<path class="st3" d="M59.97,136.09v-1.55c0-0.45-0.31-0.82-0.69-0.82h-1.36c-0.38,0-0.69,0.37-0.69,0.82v1.55
	c0,0.45,0.31,0.82,0.69,0.82h1.36C59.66,136.91,59.97,136.54,59.97,136.09"/>
<path class="st3" d="M196.82,140.7v-1.55c0-0.45-0.31-0.82-0.69-0.82h-1.36c-0.38,0-0.69,0.37-0.69,0.82v1.55
	c0,0.45,0.31,0.82,0.69,0.82h1.36C196.51,141.52,196.82,141.15,196.82,140.7"/>
<path class="st3" d="M59.97,140.87v-1.55c0-0.45-0.31-0.82-0.69-0.82h-1.36c-0.38,0-0.69,0.37-0.69,0.82v1.55
	c0,0.45,0.31,0.82,0.69,0.82h1.36C59.66,141.69,59.97,141.32,59.97,140.87"/>
</svg>
