<?xml version="1.0" encoding="utf-8"?>
<!-- Generator: Adobe Illustrator 28.1.0, SVG Export Plug-In . SVG Version: 6.00 Build 0)  -->
<svg version="1.1" id="Layer_1" xmlns="http://www.w3.org/2000/svg" xmlns:xlink="http://www.w3.org/1999/xlink" x="0px" y="0px"
	 viewBox="0 0 144 155" style="enable-background:new 0 0 144 155;" xml:space="preserve">
<style type="text/css">
	.st0{fill:#E8E4E1;}
	.st1{fill:#C8C8CC;}
	.st2{fill:#242424;}
	.st3{fill:#AFAFB2;}
</style>
<rect x="0.02" y="40.17" class="st0" width="143.98" height="86.01"/>
<rect x="0.06" y="134.5" class="st1" width="143.87" height="16"/>
<rect x="0.06" y="4.99" class="st1" width="143.87" height="15"/>
<path class="st2" d="M114.79,150.48c-1.79,0-3.23-1.7-3.23-3.8V142c0-2.1,1.45-3.8,3.23-3.8h23.22c1.79,0,3.23,1.7,3.23,3.8v4.68
	c0,2.1-1.45,3.8-3.23,3.8H114.79z M78.53,150.48c-1.79,0-3.23-1.7-3.23-3.8V142c0-2.1,1.44-3.8,3.23-3.8h23.21
	c1.79,0,3.23,1.7,3.23,3.8v4.68c0,2.1-1.45,3.8-3.23,3.8H78.53z M42.25,150.48c-1.79,0-3.23-1.7-3.23-3.8V142
	c0-2.1,1.44-3.8,3.23-3.8h23.22c1.79,0,3.23,1.7,3.23,3.8v4.68c0,2.1-1.44,3.8-3.23,3.8H42.25z M5.99,150.48
	c-1.79,0-3.23-1.7-3.23-3.8V142c0-2.1,1.45-3.8,3.23-3.8h23.22c1.79,0,3.23,1.7,3.23,3.8v4.68c0,2.1-1.44,3.8-3.23,3.8H5.99z
	 M15.81,125.29c-3.26,0-5.91-3.11-5.91-6.94V46.98c0-3.84,2.64-6.94,5.91-6.94h111.28c3.26,0,5.91,3.11,5.91,6.94v71.36
	c0,3.84-2.64,6.94-5.91,6.94H15.81z M114.79,17.43c-1.79,0-3.23-1.7-3.23-3.8V8.95c0-2.1,1.45-3.8,3.23-3.8h23.22
	c1.79,0,3.23,1.7,3.23,3.8v4.68c0,2.1-1.45,3.8-3.23,3.8H114.79z M78.53,17.43c-1.79,0-3.23-1.7-3.23-3.8V8.95
	c0-2.1,1.44-3.8,3.23-3.8h23.21c1.79,0,3.23,1.7,3.23,3.8v4.68c0,2.1-1.45,3.8-3.23,3.8H78.53z M42.25,17.43
	c-1.79,0-3.23-1.7-3.23-3.8V8.95c0-2.1,1.44-3.8,3.23-3.8h23.22c1.79,0,3.23,1.7,3.23,3.8v4.68c0,2.1-1.44,3.8-3.23,3.8H42.25z
	 M5.99,17.43c-1.79,0-3.23-1.7-3.23-3.8V8.95c0-2.1,1.45-3.8,3.23-3.8h23.22c1.79,0,3.23,1.7,3.23,3.8v4.68c0,2.1-1.44,3.8-3.23,3.8
	H5.99z M143.99,148.06V6.94c0-3.84-2.64-6.94-5.91-6.94H5.91C2.65,0,0,3.11,0,6.94v141.12C0,151.9,2.64,155,5.91,155h132.16
	C141.34,155,143.99,151.9,143.99,148.06"/>
<polygon points="84.61,115.82 59.38,115.82 59.38,51.17 84.38,51.17 84.38,59.69 68.52,59.69 68.52,78.57 82.16,78.57 82.16,86.99 
	68.52,86.99 68.52,107.25 84.61,107.25 "/>
<path class="st1" d="M141.79,55.69V44.91v-8.85v-1.5v-4.63c0-1.75-1.09-3.17-2.43-3.17h-3.61h-0.55h-8.56H76.95v-4
	c0-1.36-0.94-2.46-2.09-2.46h-5.71c-1.16,0-2.09,1.1-2.09,2.46v4H17.37H8.81H8.26H4.65c-1.34,0-2.43,1.42-2.43,3.17v4.63v1.5v8.85
	v10.95c0,0.45,0.31,0.82,0.69,0.82h1.36c0.38,0,0.69-0.37,0.69-0.82v-7.78h3.61c0.43,0,0.79-0.46,0.79-1.02v-1.58
	c0-1.22,0.22-3.02,0.61-4.04c0.38-1.01,0.92-1.89,1.59-2.59c1.01-1.07,2.85-1.7,4.26-1.7h3.2c0.43,0,0.79-0.46,0.79-1.02v-6.19
	c0-0.2-0.02-0.38-0.04-0.57H31.9v6.44c0,0.71,0.49,1.29,1.1,1.29h20.88c0.61,0,1.1-0.58,1.1-1.29v-6.44h12.09v5.92
	c0,1.36,0.94,2.46,2.09,2.46h5.71c1.16,0,2.09-1.1,2.09-2.46v-5.92h15.39v6.44c0,0.71,0.49,1.29,1.1,1.29h20.89
	c0.61,0,1.1-0.58,1.1-1.29v-6.44h8.84c-0.03,0.18-0.04,0.37-0.04,0.57v6.19c0,0.56,0.35,1.02,0.79,1.02h3.2
	c1.41,0,3.25,0.64,4.26,1.7c0.67,0.7,1.21,1.58,1.59,2.59c0.39,1.02,0.61,2.82,0.61,4.04v1.58c0,0.56,0.35,1.02,0.79,1.02h3.61v7.62
	c0,0.45,0.31,0.82,0.69,0.82h1.36C141.48,56.51,141.79,56.14,141.79,55.69"/>
<path class="st3" d="M141.82,60.65V59.1c0-0.45-0.31-0.82-0.69-0.82h-1.36c-0.38,0-0.69,0.37-0.69,0.82v1.55
	c0,0.45,0.31,0.82,0.69,0.82h1.36C141.51,61.47,141.82,61.1,141.82,60.65"/>
<path class="st3" d="M4.99,60.82v-1.55c0-0.45-0.31-0.82-0.69-0.82H2.94c-0.38,0-0.69,0.37-0.69,0.82v1.55
	c0,0.45,0.31,0.82,0.69,0.82H4.3C4.68,61.64,4.99,61.27,4.99,60.82"/>
<path class="st1" d="M141.82,124.19v-17.23c0-0.45-0.31-0.82-0.69-0.82h-1.36c-0.38,0-0.69,0.37-0.69,0.82v15.28
	c0,4.29-1.87,7.8-5.5,7.8H76.93c-0.21-1.1-1.04-1.92-2.04-1.92h-5.71c-1,0-1.83,0.82-2.04,1.92H11.58c-3.63,0-6.6-3.51-6.6-7.8
	v-15.12c0-0.45-0.31-0.82-0.69-0.82H2.93c-0.38,0-0.69,0.37-0.69,0.82v17.07c0,4.29,2.97,7.8,6.6,7.8h58.25v3.35
	c0,1.36,0.94,2.46,2.09,2.46h5.71c1.16,0,2.09-1.1,2.09-2.46v-3.35h58.25C138.86,131.99,141.82,128.48,141.82,124.19"/>
<path class="st3" d="M141.82,103.66v-1.55c0-0.45-0.31-0.82-0.69-0.82h-1.36c-0.38,0-0.69,0.37-0.69,0.82v1.55
	c0,0.45,0.31,0.82,0.69,0.82h1.36C141.51,104.48,141.82,104.11,141.82,103.66"/>
<path class="st3" d="M4.99,103.83v-1.55c0-0.45-0.31-0.82-0.69-0.82H2.94c-0.38,0-0.69,0.37-0.69,0.82v1.55
	c0,0.45,0.31,0.82,0.69,0.82H4.3C4.68,104.65,4.99,104.28,4.99,103.83"/>
<path class="st3" d="M141.82,65.43v-1.55c0-0.45-0.31-0.82-0.69-0.82h-1.36c-0.38,0-0.69,0.37-0.69,0.82v1.55
	c0,0.45,0.31,0.82,0.69,0.82h1.36C141.51,66.25,141.82,65.88,141.82,65.43"/>
<path class="st3" d="M4.99,65.6v-1.55c0-0.45-0.31-0.82-0.69-0.82H2.94c-0.38,0-0.69,0.37-0.69,0.82v1.55
	c0,0.45,0.31,0.82,0.69,0.82H4.3C4.68,66.41,4.99,66.05,4.99,65.6"/>
<path class="st3" d="M141.82,70.21v-1.55c0-0.45-0.31-0.82-0.69-0.82h-1.36c-0.38,0-0.69,0.37-0.69,0.82v1.55
	c0,0.45,0.31,0.82,0.69,0.82h1.36C141.51,71.03,141.82,70.66,141.82,70.21"/>
<path class="st3" d="M4.99,70.37v-1.55C4.99,68.37,4.68,68,4.3,68H2.94c-0.38,0-0.69,0.37-0.69,0.82v1.55
	c0,0.45,0.31,0.82,0.69,0.82H4.3C4.68,71.19,4.99,70.82,4.99,70.37"/>
<path class="st3" d="M141.82,74.99v-1.55c0-0.45-0.31-0.82-0.69-0.82h-1.36c-0.38,0-0.69,0.37-0.69,0.82v1.55
	c0,0.45,0.31,0.82,0.69,0.82h1.36C141.51,75.8,141.82,75.44,141.82,74.99"/>
<path class="st3" d="M4.99,75.15V73.6c0-0.45-0.31-0.82-0.69-0.82H2.94c-0.38,0-0.69,0.37-0.69,0.82v1.55
	c0,0.45,0.31,0.82,0.69,0.82H4.3C4.68,75.97,4.99,75.6,4.99,75.15"/>
<path class="st3" d="M141.82,79.77v-1.55c0-0.45-0.31-0.82-0.69-0.82h-1.36c-0.38,0-0.69,0.37-0.69,0.82v1.55
	c0,0.45,0.31,0.82,0.69,0.82h1.36C141.51,80.59,141.82,80.22,141.82,79.77"/>
<path class="st3" d="M4.99,79.94v-1.55c0-0.45-0.31-0.82-0.69-0.82H2.94c-0.38,0-0.69,0.37-0.69,0.82v1.55
	c0,0.45,0.31,0.82,0.69,0.82H4.3C4.68,80.76,4.99,80.39,4.99,79.94"/>
<path class="st3" d="M141.82,84.55V83c0-0.45-0.31-0.82-0.69-0.82h-1.36c-0.38,0-0.69,0.37-0.69,0.82v1.55
	c0,0.45,0.31,0.82,0.69,0.82h1.36C141.51,85.37,141.82,85,141.82,84.55"/>
<path class="st3" d="M4.99,84.72v-1.55c0-0.45-0.31-0.82-0.69-0.82H2.94c-0.38,0-0.69,0.37-0.69,0.82v1.55
	c0,0.45,0.31,0.82,0.69,0.82H4.3C4.68,85.54,4.99,85.17,4.99,84.72"/>
<path class="st3" d="M141.82,89.33v-1.55c0-0.45-0.31-0.82-0.69-0.82h-1.36c-0.38,0-0.69,0.37-0.69,0.82v1.55
	c0,0.45,0.31,0.82,0.69,0.82h1.36C141.51,90.15,141.82,89.78,141.82,89.33"/>
<path class="st3" d="M4.99,89.5v-1.55c0-0.45-0.31-0.82-0.69-0.82H2.94c-0.38,0-0.69,0.37-0.69,0.82v1.55
	c0,0.45,0.31,0.82,0.69,0.82H4.3C4.68,90.31,4.99,89.95,4.99,89.5"/>
<path class="st3" d="M141.82,94.11v-1.55c0-0.45-0.31-0.82-0.69-0.82h-1.36c-0.38,0-0.69,0.37-0.69,0.82v1.55
	c0,0.45,0.31,0.82,0.69,0.82h1.36C141.51,94.92,141.82,94.56,141.82,94.11"/>
<path class="st3" d="M4.99,94.27v-1.55c0-0.45-0.31-0.82-0.69-0.82H2.94c-0.38,0-0.69,0.37-0.69,0.82v1.55
	c0,0.45,0.31,0.82,0.69,0.82H4.3C4.68,95.09,4.99,94.72,4.99,94.27"/>
<path class="st3" d="M141.82,98.88v-1.55c0-0.45-0.31-0.82-0.69-0.82h-1.36c-0.38,0-0.69,0.37-0.69,0.82v1.55
	c0,0.45,0.31,0.82,0.69,0.82h1.36C141.51,99.7,141.82,99.33,141.82,98.88"/>
<path class="st3" d="M4.99,99.05V97.5c0-0.45-0.31-0.82-0.69-0.82H2.94c-0.38,0-0.69,0.37-0.69,0.82v1.55
	c0,0.45,0.31,0.82,0.69,0.82H4.3C4.68,99.87,4.99,99.5,4.99,99.05"/>
</svg>
