<?xml version="1.0" encoding="utf-8"?>
<!-- Generator: Adobe Illustrator 28.1.0, SVG Export Plug-In . SVG Version: 6.00 Build 0)  -->
<svg version="1.1" id="Layer_1" xmlns="http://www.w3.org/2000/svg" xmlns:xlink="http://www.w3.org/1999/xlink" x="0px" y="0px"
	 viewBox="0 0 125 125" style="enable-background:new 0 0 125 125;" xml:space="preserve">
<style type="text/css">
	.st0{clip-path:url(#SVGID_00000139258113828089529680000015451879949988075684_);fill:#425166;}
</style>
<g>
	<g>
		<defs>
			<rect id="SVGID_1_" y="13.5" width="125" height="98"/>
		</defs>
		<clipPath id="SVGID_00000015355907770256664010000013312741712111954087_">
			<use xlink:href="#SVGID_1_"  style="overflow:visible;"/>
		</clipPath>
		<path style="clip-path:url(#SVGID_00000015355907770256664010000013312741712111954087_);fill:#425166;" d="M53.85,106.3
			c15.18,0,30.37,0,45.55-0.01c0.58,0,1.16-0.04,1.72-0.13c0.77-0.12,1.14-0.51,1.27-1.26c0.06-0.38,0.1-0.77,0.1-1.16
			c0.01-27.47,0.01-54.95,0-82.42c0-0.39-0.03-0.78-0.09-1.16c-0.13-0.84-0.58-1.27-1.43-1.39c-0.42-0.06-0.85-0.09-1.27-0.09
			c-30.55,0-61.1,0-91.65,0c-0.39,0-0.79,0.03-1.18,0.08c-0.93,0.11-1.36,0.52-1.48,1.42c-0.06,0.4-0.09,0.8-0.09,1.21
			c0,27.41-0.01,54.82,0,82.24c0,0.46,0.05,0.92,0.12,1.38c0.1,0.67,0.51,1.08,1.2,1.16c0.57,0.07,1.15,0.12,1.73,0.12
			C23.51,106.3,38.68,106.3,53.85,106.3 M53.86,111.5c-13.65,0-27.29,0-40.94,0c-1.72,0-3.44-0.01-5.16-0.03
			c-1.23-0.01-2.42-0.22-3.56-0.67c-2.43-0.98-3.64-2.88-4.03-5.34c-0.12-0.75-0.17-1.52-0.17-2.28C0,75.95,0,48.71,0.01,21.48
			c0-0.86,0.1-1.73,0.29-2.57c0.68-2.96,2.73-4.8,5.8-5.23c0.75-0.11,1.51-0.17,2.27-0.17c30.44-0.01,60.88-0.01,91.33,0.01
			c0.99,0,2.01,0.14,2.97,0.39c2.77,0.72,4.32,2.59,4.83,5.31c0.14,0.74,0.2,1.51,0.2,2.27c0.01,19.84,0.01,39.68,0.02,59.52
			c0,0.2,0.12,0.4,0.19,0.6c0.1-0.18,0.24-0.35,0.29-0.54c3.78-13.94,7.54-27.87,11.31-41.81c0.08-0.29,0.15-0.58,0.2-0.87
			c0.13-0.69-0.09-1.01-0.8-1.05c-0.86-0.05-1.73-0.03-2.6-0.06c-0.7-0.02-1.4-0.03-2.09-0.14c-0.69-0.11-1.03-0.52-1.05-1.21
			c-0.03-0.77,0-1.55,0.04-2.33c0.03-0.66,0.69-1.36,1.37-1.41c2.02-0.12,4.04-0.23,6.04,0.2c2.34,0.5,4.06,2.47,4.33,4.81
			c0.14,1.22-0.11,2.37-0.4,3.53c-2.58,10.2-5.16,20.41-7.75,30.61c-2.81,11.08-5.64,22.16-8.47,33.24
			c-0.2,0.78-0.47,1.55-0.79,2.28c-1.2,2.68-3.34,4.14-6.27,4.51c-0.6,0.07-1.21,0.11-1.82,0.11c-15.2,0.01-30.39,0-45.59,0V111.5z"
			/>
		<path style="clip-path:url(#SVGID_00000015355907770256664010000013312741712111954087_);fill:#425166;" d="M34.95,56.37
			c-5.7,0-11.41,0-17.11-0.01c-0.45,0-0.91-0.05-1.36-0.12c-0.73-0.12-1.17-0.58-1.25-1.29c-0.08-0.66-0.11-1.34-0.11-2.01
			c-0.01-5.36-0.01-10.72,0-16.08c0-0.8-0.01-1.62,0.09-2.41c0.12-0.99,0.64-1.42,1.66-1.52c0.3-0.03,0.61-0.04,0.91-0.04
			c11.44,0,22.87,0,34.31,0c0.44,0,0.88,0.04,1.31,0.12c0.74,0.12,1.14,0.6,1.25,1.3c0.06,0.38,0.09,0.77,0.09,1.16
			c0.01,6.11,0.01,12.22,0,18.32c0,0.34-0.02,0.69-0.07,1.03c-0.14,0.97-0.58,1.39-1.57,1.5c-0.35,0.04-0.7,0.05-1.05,0.05
			C46.36,56.37,40.65,56.37,34.95,56.37"/>
		<path style="clip-path:url(#SVGID_00000015355907770256664010000013312741712111954087_);fill:#425166;" d="M54.11,87.72
			c8.14,0,16.28,0,24.42,0c3.21,0,6.42,0.01,9.63,0.03c0.88,0.01,1.77,0.01,2.63,0.15c1.2,0.2,1.38,0.42,1.37,1.59
			c-0.01,0.94-0.14,1.87-0.26,2.8c-0.02,0.15-0.24,0.35-0.41,0.39c-0.42,0.11-0.87,0.19-1.3,0.19C76.4,92.89,62.6,92.9,48.8,92.9
			c-8.09,0-16.19-0.01-24.28-0.02c-2.14,0-4.29,0-6.43-0.08c-1.57-0.06-1.92-0.45-1.94-1.99c-0.01-0.71,0.11-1.43,0.15-2.14
			c0.02-0.34,0.24-0.53,0.53-0.6c0.65-0.14,1.31-0.23,1.96-0.33c0.06-0.01,0.12,0,0.18,0h35.14V87.72z"/>
		<path style="clip-path:url(#SVGID_00000015355907770256664010000013312741712111954087_);fill:#425166;" d="M53.95,69.49
			c6.28,0,12.56,0,18.85,0c5.37,0,10.74,0,16.11,0.03c0.83,0,1.66,0.16,2.48,0.29c0.46,0.07,0.72,0.37,0.78,0.86
			c0.12,1.09,0.08,2.18-0.16,3.25c-0.04,0.16-0.25,0.36-0.41,0.4c-0.49,0.13-1.01,0.26-1.51,0.27c-2.91,0.03-5.81,0.02-8.72,0.02
			c-19.38,0-38.76,0-58.14,0c-1.54,0-3.07,0.03-4.61-0.03c-0.65-0.03-1.3-0.24-1.94-0.42c-0.16-0.05-0.38-0.32-0.37-0.48
			c0.02-1.2,0.09-2.41,0.17-3.61c0.01-0.12,0.22-0.3,0.36-0.34c0.47-0.11,0.95-0.21,1.43-0.22c11.89-0.01,23.79-0.01,35.69-0.01
			V69.49z"/>
		<path style="clip-path:url(#SVGID_00000015355907770256664010000013312741712111954087_);fill:#425166;" d="M78.98,38.09
			c-3.51,0-7.02,0-10.54-0.01c-0.44,0-0.88-0.04-1.31-0.1c-0.51-0.07-0.85-0.41-0.87-0.9c-0.04-1.04-0.05-2.08-0.01-3.12
			c0.02-0.53,0.36-0.88,0.92-0.96c0.42-0.06,0.84-0.11,1.27-0.11c6.05-0.01,12.1-0.01,18.15,0c1.09,0,2.19,0.02,3.28,0.03
			c0.12,0,0.24,0.01,0.36,0.02c1.49,0.12,1.89,0.52,1.86,1.96c-0.02,0.79-0.14,1.57-0.2,2.36c-0.03,0.44-0.3,0.64-0.7,0.67
			c-0.83,0.07-1.66,0.15-2.5,0.15C85.46,38.1,82.22,38.09,78.98,38.09"/>
		<path style="clip-path:url(#SVGID_00000015355907770256664010000013312741712111954087_);fill:#425166;" d="M79.34,51.22
			c3.72,0,7.45,0,11.17,0c0.18,0,0.37,0,0.55,0.02c0.76,0.1,1.07,0.35,1.13,1.11c0.07,0.89,0.09,1.79,0.06,2.68
			c-0.03,0.73-0.51,1.21-1.28,1.29c-0.64,0.07-1.3,0.05-1.95,0.05c-6.9,0-13.81,0-20.71,0c-0.39,0-0.79-0.04-1.18-0.1
			c-0.51-0.08-0.84-0.41-0.87-0.9c-0.07-0.97-0.11-1.94-0.08-2.9c0.02-0.61,0.41-1.02,1.03-1.16c0.29-0.07,0.6-0.1,0.9-0.1
			c3.74-0.01,7.48,0,11.22,0V51.22z"/>
	</g>
</g>
</svg>
