<?xml version="1.0" encoding="utf-8"?>
<!-- Generator: Adobe Illustrator 28.1.0, SVG Export Plug-In . SVG Version: 6.00 Build 0)  -->
<svg version="1.1" id="Layer_1" xmlns="http://www.w3.org/2000/svg" xmlns:xlink="http://www.w3.org/1999/xlink" x="0px" y="0px"
	 viewBox="0 0 125 125" style="enable-background:new 0 0 125 125;" xml:space="preserve">
<style type="text/css">
	.st0{clip-path:url(#SVGID_00000152971245185670317120000001205256959243069608_);fill:#425166;}
</style>
<g>
	<g>
		<defs>
			<rect id="SVGID_1_" x="15.5" y="6.5" width="94" height="112"/>
		</defs>
		<clipPath id="SVGID_00000077291986177571146490000014232123088112584117_">
			<use xlink:href="#SVGID_1_"  style="overflow:visible;"/>
		</clipPath>
		<path style="clip-path:url(#SVGID_00000077291986177571146490000014232123088112584117_);fill:#425166;" d="M33.97,52.89
			c0.02-3.23,0.13-5.94,0.6-8.65c0.81-4.64,2.31-8.39,4.6-11.48c1.49-2.01,3.37-3.75,5.74-5.33c1.35-0.89,2.79-1.58,4.31-2.31
			c0.57-0.27,1.16-0.56,1.75-0.85c2.34-1.18,3.99-3.03,4.76-5.35c0.66-1.98,1.51-3.5,2.7-4.76c1.04-1.12,2.53-1.76,4.08-1.76
			c1.27,0,2.5,0.43,3.46,1.23c1.43,1.18,2.41,2.58,2.97,4.28c0.5,1.52,1.09,2.69,1.86,3.68c1.09,1.41,2.53,2.44,4.67,3.35
			c3.64,1.55,6.58,3.55,9,6.11c1.93,2.04,3.41,4.53,4.53,7.59c1.06,2.92,1.69,5.96,1.85,9.05c0.1,1.91,0.15,3.86,0.2,5.75
			c0.04,1.39,0.07,2.84,0.13,4.26c0.2,4.9,0.71,11.33,2.91,17.65c1.27,3.64,3.25,7.16,5.89,10.44c1.06,1.31,2.21,2.73,3.61,4.46
			c0.02,0.03,0.07,0.08,0.11,0.14c-0.05,0.02-0.13,0.04-0.25,0.04c-1.43,0.02-2.88,0.02-4.29,0.02H86.93H62.49H41.72
			c-6.55,0-13.1,0-19.65,0c-0.24,0-0.46,0-0.62-0.04c-0.05-0.01-0.09-0.02-0.12-0.04c0.01-0.01,0.02-0.03,0.03-0.04
			c0.39-0.48,0.77-0.95,1.16-1.43c0.88-1.09,1.8-2.21,2.69-3.32c3.69-4.63,6.16-10.06,7.35-16.11
			C33.49,64.7,33.92,59.59,33.97,52.89 M107.99,86.47c-1.15-1.42-2.39-2.94-3.59-4.43c-2.24-2.8-3.85-5.64-4.92-8.68
			c-1.52-4.35-2.31-9.25-2.58-15.9c-0.05-1.15-0.08-2.34-0.11-3.49l-0.02-0.68c-0.05-1.93-0.1-3.93-0.2-5.92
			c-0.19-3.69-0.94-7.32-2.21-10.8c-1.4-3.84-3.29-6.99-5.79-9.63c-2.94-3.1-6.61-5.61-10.92-7.45c-1.2-0.51-1.93-1-2.38-1.58
			c-0.34-0.44-0.62-1.02-0.91-1.9c-0.92-2.76-2.54-5.11-4.82-6.99C67.57,7.4,65.06,6.5,62.49,6.5c-3.11,0-6.11,1.3-8.23,3.57
			c-1.76,1.88-3.07,4.16-3.99,6.95c-0.28,0.84-0.86,1.46-1.84,1.95c-0.42,0.21-0.84,0.41-1.28,0.62l-0.4,0.19
			c-1.63,0.77-3.31,1.58-4.99,2.69c-2.94,1.95-5.29,4.15-7.18,6.71c-2.85,3.85-4.71,8.43-5.68,14.02c-0.58,3.31-0.67,6.59-0.69,9.64
			c-0.04,6.31-0.44,11.08-1.3,15.46c-1.01,5.17-3.02,9.6-6.16,13.54c-0.85,1.07-1.74,2.16-2.65,3.29c-0.2,0.24-0.4,0.49-0.6,0.74
			c-0.19,0.23-0.38,0.46-0.57,0.7c-1.38,1.71-1.79,3.81-1.12,5.77c0.65,1.93,2.23,3.32,4.31,3.82c0.82,0.2,1.53,0.2,1.96,0.2
			c6.89,0,13.78,0,20.66,0h56.41c1.43,0,2.9,0,4.37-0.02c2.4-0.04,4.43-1.33,5.44-3.46C109.42,91.88,110.27,89.26,107.99,86.47"/>
		<path style="clip-path:url(#SVGID_00000077291986177571146490000014232123088112584117_);fill:#425166;" d="M74.99,104.06
			c-0.01,0.08-0.03,0.15-0.04,0.23c0.02-0.09,0.03-0.18,0.04-0.27C74.99,104.04,74.99,104.05,74.99,104.06 M78.83,100.03
			c-0.02-0.92-0.77-1.66-1.69-1.66H47.85c-0.93,0-1.68,0.74-1.7,1.67l-0.03,2.04c-0.07,4.26,1.64,8.48,4.69,11.58
			c3.07,3.12,7.22,4.84,11.68,4.84h0.04c4.46-0.01,8.61-1.74,11.68-4.88c3.05-3.12,4.75-7.33,4.66-11.56L78.83,100.03z"/>
		<path style="clip-path:url(#SVGID_00000077291986177571146490000014232123088112584117_);fill:#425166;" d="M74.95,104.29
			c0.01-0.09,0.03-0.18,0.04-0.27c0,0.01,0,0.03-0.01,0.04C74.98,104.14,74.96,104.22,74.95,104.29"/>
	</g>
</g>
</svg>
