<?xml version="1.0" encoding="utf-8"?>
<!-- Generator: Adobe Illustrator 28.1.0, SVG Export Plug-In . SVG Version: 6.00 Build 0)  -->
<svg version="1.1" id="Layer_1" xmlns="http://www.w3.org/2000/svg" xmlns:xlink="http://www.w3.org/1999/xlink" x="0px" y="0px"
	 viewBox="0 0 125 125" style="enable-background:new 0 0 125 125;" xml:space="preserve">
<style type="text/css">
	.st0{clip-path:url(#SVGID_00000137849336387659102750000004359335118388633004_);fill:#425166;}
</style>
<g>
	<defs>
		<rect id="SVGID_1_" x="18.5" y="6.5" width="88" height="112"/>
	</defs>
	<clipPath id="SVGID_00000070827652126292851810000004683323235373647233_">
		<use xlink:href="#SVGID_1_"  style="overflow:visible;"/>
	</clipPath>
	<path style="clip-path:url(#SVGID_00000070827652126292851810000004683323235373647233_);fill:#425166;" d="M85.28,67.34
		c-9.02-0.2-15.67,4.56-22.78,4.45c-7.11,0.1-13.76-4.65-22.78-4.45c-18.69,0.39-22.24,36.88-21,45.05c0.14,0.89,0.22,1.7,0.3,2.34
		c0.5,3.78,0.61,3.69,5.57,3.74c5.49,0.06,37.91,0,37.91,0s32.41,0.06,37.9,0c4.96-0.05,5.08,0.04,5.58-3.74
		c0.09-0.65,0.16-1.45,0.3-2.34C107.52,104.23,103.96,67.73,85.28,67.34"/>
	<path style="clip-path:url(#SVGID_00000070827652126292851810000004683323235373647233_);fill:#425166;" d="M89.31,33.25
		c0,14.77-12,26.75-26.81,26.75S35.69,48.02,35.69,33.25S47.7,6.5,62.5,6.5S89.31,18.47,89.31,33.25"/>
</g>
</svg>
