<?xml version="1.0" encoding="utf-8"?>
<!-- Generator: Adobe Illustrator 28.1.0, SVG Export Plug-In . SVG Version: 6.00 Build 0)  -->
<svg version="1.1" id="Layer_1" xmlns="http://www.w3.org/2000/svg" xmlns:xlink="http://www.w3.org/1999/xlink" x="0px" y="0px"
	 viewBox="0 0 125 125" style="enable-background:new 0 0 125 125;" xml:space="preserve">
<style type="text/css">
	.st0{clip-path:url(#SVGID_00000035532391563271645590000009145632720465620354_);fill:#425166;}
	.st1{fill:#425166;}
	.st2{clip-path:url(#SVGID_00000101795720615050885270000003190891019337580675_);fill:#425166;}
</style>
<g>
	<g>
		<defs>
			<rect id="SVGID_1_" x="0" y="0" width="125" height="125"/>
		</defs>
		<clipPath id="SVGID_00000171695864188448628540000011811364642297941892_">
			<use xlink:href="#SVGID_1_"  style="overflow:visible;"/>
		</clipPath>
		<path style="clip-path:url(#SVGID_00000171695864188448628540000011811364642297941892_);fill:#425166;" d="M39.78,73.87
			c-18.83,0-34.09-15.27-34.09-34.09c0-18.83,15.27-34.1,34.09-34.1s34.09,15.27,34.09,34.1C73.87,58.61,58.61,73.87,39.78,73.87
			 M39.78,0C17.81,0,0,17.81,0,39.78s17.81,39.78,39.78,39.78s39.78-17.81,39.78-39.78S61.75,0,39.78,0"/>
	</g>
	
		<rect x="70.17" y="62.79" transform="matrix(0.7071 -0.7071 0.7071 0.7071 -30.2431 73.0142)" class="st1" width="5.68" height="20.46"/>
	<g>
		<defs>
			<rect id="SVGID_00000081647560148301884290000009002939477294747288_" x="0" y="0" width="125" height="125"/>
		</defs>
		<clipPath id="SVGID_00000114755774559499974440000002726102325952833156_">
			<use xlink:href="#SVGID_00000081647560148301884290000009002939477294747288_"  style="overflow:visible;"/>
		</clipPath>
		<path style="clip-path:url(#SVGID_00000114755774559499974440000002726102325952833156_);fill:#425166;" d="M111.93,123.99
			L69.52,79.76c-1.35-1.35-1.35-3.55,0-4.9l5.34-5.34c1.35-1.35,3.54-1.35,4.9,0l44.23,42.41c1.35,1.35,1.35,3.54,0,4.9l-7.16,7.16
			C115.48,125.34,113.28,125.34,111.93,123.99"/>
	</g>
</g>
</svg>
