<?xml version="1.0" encoding="utf-8"?>
<!-- Generator: Adobe Illustrator 28.1.0, SVG Export Plug-In . SVG Version: 6.00 Build 0)  -->
<svg version="1.1" id="Layer_1" xmlns="http://www.w3.org/2000/svg" xmlns:xlink="http://www.w3.org/1999/xlink" x="0px" y="0px"
	 viewBox="0 0 125 125" style="enable-background:new 0 0 125 125;" xml:space="preserve">
<style type="text/css">
	.st0{clip-path:url(#SVGID_00000060728140251203268020000007362788665562577834_);fill:#D9BC79;}
</style>
<g>
	<defs>
		<rect id="SVGID_1_" y="0" width="125" height="125"/>
	</defs>
	<clipPath id="SVGID_00000111903791968807348290000015569486696807954826_">
		<use xlink:href="#SVGID_1_"  style="overflow:visible;"/>
	</clipPath>
	<path style="clip-path:url(#SVGID_00000111903791968807348290000015569486696807954826_);fill:#D9BC79;" d="M69.36,4.45L82.75,32.8
		c1.11,2.36,3.27,3.99,5.75,4.37l29.94,4.55c6.27,0.95,8.77,9,4.24,13.62l-21.67,22.07c-1.8,1.84-2.62,4.48-2.2,7.07l5.11,31.16
		c1.07,6.53-5.48,11.5-11.09,8.43l-26.78-14.71c-2.22-1.22-4.89-1.22-7.12,0l-26.78,14.71c-5.61,3.08-12.17-1.9-11.09-8.43
		l5.11-31.16c0.43-2.59-0.4-5.23-2.2-7.07L2.32,55.35c-4.54-4.62-2.04-12.67,4.24-13.62l29.94-4.55c2.49-0.38,4.65-2.01,5.76-4.37
		L55.64,4.45C58.45-1.48,66.55-1.48,69.36,4.45"/>
</g>
</svg>
