<?xml version="1.0" encoding="utf-8"?>
<!-- Generator: Adobe Illustrator 28.1.0, SVG Export Plug-In . SVG Version: 6.00 Build 0)  -->
<svg version="1.1" id="Layer_1" xmlns="http://www.w3.org/2000/svg" xmlns:xlink="http://www.w3.org/1999/xlink" x="0px" y="0px"
	 viewBox="0 0 125 115" style="enable-background:new 0 0 125 115;" xml:space="preserve">
<style type="text/css">
	.st0{clip-path:url(#SVGID_00000060019824448822902470000001020734599911538844_);fill:#506373;}
</style>
<g>
	<defs>
		<rect id="SVGID_1_" x="12.5" y="22.5" width="100" height="70"/>
	</defs>
	<clipPath id="SVGID_00000079450135793585306360000015160865056825387666_">
		<use xlink:href="#SVGID_1_"  style="overflow:visible;"/>
	</clipPath>
	<path style="clip-path:url(#SVGID_00000079450135793585306360000015160865056825387666_);fill:#506373;" d="M75.04,81
		c-20.98,4.3-42.91-2.14-60.77-19.42c-2.39-2.31-2.34-6.12,0.09-8.39c5.87-5.48,12.42-10.39,19.46-14.16L45.27,50.7
		c-0.79,2.09-1.21,4.34-1.21,6.69c0,10.64,8.7,19.27,19.44,19.27c2.19,0,4.3-0.36,6.26-1.03L75.04,81z"/>
	<path style="clip-path:url(#SVGID_00000079450135793585306360000015160865056825387666_);fill:#506373;" d="M77.23,64.59
		c1-1.85,1.63-3.91,1.79-6.1c0.63-9.01-6.56-16.51-15.51-16.51c-0.71,0-1.41,0.05-2.09,0.14l-0.66,0.11c0,0-1.97,3.06-3.98,1.53
		l-2.99-3.05c2.86-1.64,6.18-2.58,9.73-2.58c10.73,0,19.44,8.62,19.44,19.26c0,3.7-1.06,7.15-2.89,10.08L77.23,64.59z M110.73,53.37
		c-13.8-13.22-31.55-22.72-50.67-21.93c-4.51,0.19-8.92,0.97-13.2,2.22L36.33,22.95c-0.59-0.6-1.54-0.6-2.12,0l-4.89,4.98
		c-0.59,0.6-0.59,1.56,0,2.16l21.4,21.79c-0.2,2.66-1.96,3.59-1.96,3.59c-0.4,0-0.72,0.31-0.75,0.7c-0.03,0.41-0.05,0.82-0.05,1.23
		c0,8.87,7.57,16,16.66,15.38c1.88-0.13,3.67-0.6,5.31-1.34l20.26,20.63c0.59,0.6,1.54,0.6,2.12,0l4.89-4.98
		c0.59-0.6,0.59-1.56,0-2.16l-8.26-8.41c7.64-3.42,14.99-8.35,21.76-14.79C113.09,59.44,113.11,55.66,110.73,53.37"/>
</g>
</svg>
