<?xml version="1.0" encoding="utf-8"?>
<!-- Generator: Adobe Illustrator 28.1.0, SVG Export Plug-In . SVG Version: 6.00 Build 0)  -->
<svg version="1.1" id="Layer_1" xmlns="http://www.w3.org/2000/svg" xmlns:xlink="http://www.w3.org/1999/xlink" x="0px" y="0px"
	 viewBox="0 0 125 115" style="enable-background:new 0 0 125 115;" xml:space="preserve">
<style type="text/css">
	.st0{clip-path:url(#SVGID_00000110443195623376467720000008626866383235343020_);fill:#506373;}
</style>
<g>
	<defs>
		<rect id="SVGID_1_" x="12.5" y="17.5" width="100" height="80"/>
	</defs>
	<clipPath id="SVGID_00000097493023933786477440000001559763200276153272_">
		<use xlink:href="#SVGID_1_"  style="overflow:visible;"/>
	</clipPath>
	<path style="clip-path:url(#SVGID_00000097493023933786477440000001559763200276153272_);fill:#506373;" d="M105.12,25.33
		L105.12,25.33c-9.84-10.44-25.79-10.44-35.62,0l-6.05,6.42c-0.35,0.37-0.79,0.56-1.24,0.59c-0.24-0.1-0.46-0.25-0.65-0.46
		l-6.05-6.42c-9.84-10.44-25.79-10.44-35.63,0c-9.84,10.44-9.84,23.74,0,34.18l11.36,12.92c9.95,10.56,23.51,24.38,30.82,24.92
		c7.31-0.54,21.76-14.5,31.71-25.06l11.36-12.93C114.96,49.07,114.96,35.78,105.12,25.33"/>
</g>
</svg>
