<?xml version="1.0" encoding="utf-8"?>
<!-- Generator: Adobe Illustrator 28.1.0, SVG Export Plug-In . SVG Version: 6.00 Build 0)  -->
<svg version="1.1" id="Layer_1" xmlns="http://www.w3.org/2000/svg" xmlns:xlink="http://www.w3.org/1999/xlink" x="0px" y="0px"
	 viewBox="0 0 125 115" style="enable-background:new 0 0 125 115;" xml:space="preserve">
<style type="text/css">
	.st0{clip-path:url(#SVGID_00000015327064188597751760000015736738704689035431_);fill:#506373;}
</style>
<g>
	<defs>
		<rect id="SVGID_1_" x="12.47" y="32.44" width="100" height="50"/>
	</defs>
	<clipPath id="SVGID_00000067232254698378152260000013375921002069470359_">
		<use xlink:href="#SVGID_1_"  style="overflow:visible;"/>
	</clipPath>
	<path style="clip-path:url(#SVGID_00000067232254698378152260000013375921002069470359_);fill:#506373;" d="M63.48,76.91
		c-10.74,0-19.44-8.48-19.44-18.93c0-10.45,8.71-18.93,19.44-18.93c10.73,0,19.44,8.47,19.44,18.93
		C82.91,68.43,74.21,76.91,63.48,76.91 M110.7,54.03c-13.8-12.99-31.55-22.32-50.67-21.54c-17.2,0.7-33.03,9.76-45.7,21.37
		c-2.43,2.23-2.48,5.97-0.09,8.24c28.58,27.16,67.62,27.04,96.43,0.13C113.06,60,113.08,56.28,110.7,54.03"/>
	<path style="clip-path:url(#SVGID_00000067232254698378152260000013375921002069470359_);fill:#506373;" d="M78.99,59.06
		c-0.53,7.47-6.74,13.51-14.41,14.03c-9.09,0.61-16.65-6.39-16.65-15.1c0-0.41,0.02-0.81,0.05-1.21c0.03-0.39,0.35-0.69,0.75-0.69
		h3.61c4.63,0,8.39-3.66,8.39-8.17v-4.22c0-0.37,0.28-0.68,0.66-0.73c0.68-0.09,1.38-0.14,2.09-0.14
		C72.43,42.84,79.62,50.21,78.99,59.06"/>
</g>
</svg>
