<?xml version="1.0" encoding="utf-8"?>
<!-- Generator: Adobe Illustrator 28.1.0, SVG Export Plug-In . SVG Version: 6.00 Build 0)  -->
<svg version="1.1" id="Layer_1" xmlns="http://www.w3.org/2000/svg" xmlns:xlink="http://www.w3.org/1999/xlink" x="0px" y="0px"
	 viewBox="0 0 120 120" style="enable-background:new 0 0 120 120;" xml:space="preserve">
<style type="text/css">
	.st0{clip-path:url(#SVGID_00000014613603024567302190000008365181224248594818_);fill:#425166;}
</style>
<g>
	<defs>
		<rect id="SVGID_1_" width="120" height="120"/>
	</defs>
	<clipPath id="SVGID_00000096778278674470493650000002235351547575570309_">
		<use xlink:href="#SVGID_1_"  style="overflow:visible;"/>
	</clipPath>
	<path style="clip-path:url(#SVGID_00000096778278674470493650000002235351547575570309_);fill:#425166;" d="M102.49,98.63
		c-0.84,1.53-2.51,1.41-4.03,1.41c-12.74,0.01-25.49,0.01-38.24,0.01c-12.71,0-25.42,0.01-38.12-0.01c-0.91,0-1.86-0.06-2.73-0.3
		c-1.65-0.46-2.48-1.87-2.1-3.48c0.16-0.68,0.44-1.35,0.77-1.97c6.9-13.12,13.82-26.22,20.74-39.33c1.93-3.67,4.63-3.87,7.27-0.58
		c6.78,8.47,13.55,16.95,20.34,25.42c0.49,0.61,1,1.24,1.62,1.73c2.23,1.76,5.02,1.54,7.28-0.57c1.8-1.68,3.5-3.46,5.34-5.09
		c2.35-2.08,5.35-1.84,7.4,0.5c0.28,0.32,0.54,0.67,0.8,1.01c4.2,5.73,8.4,11.45,12.58,17.19
		C102.28,95.79,103.36,97.06,102.49,98.63 M76.02,19.95c6.82,0.04,12.37,5.68,12.34,12.54c-0.03,6.87-5.62,12.44-12.45,12.41
		c-6.82-0.03-12.39-5.67-12.35-12.52C63.59,25.52,69.22,19.9,76.02,19.95 M106.38,0H13.62C6.1,0,0,6.1,0,13.62v92.76
		C0,113.9,6.1,120,13.62,120h92.76c7.52,0,13.62-6.1,13.62-13.62V13.62C120,6.1,113.9,0,106.38,0"/>
</g>
</svg>
